<svg width="101" height="102" xmlns="http://www.w3.org/2000/svg" xmlns:xlink="http://www.w3.org/1999/xlink" xml:space="preserve" overflow="hidden"><g transform="translate(-693 -428)"><path d="M80.224 9.84158C86.2629 9.84158 91.1584 14.7371 91.1584 20.776L91.1584 80.224C91.1584 86.2629 86.2629 91.1584 80.224 91.1584L20.776 91.1584C14.7371 91.1584 9.84158 86.2629 9.84158 80.224L9.84158 20.776C9.84158 14.7371 14.7371 9.84158 20.776 9.84158Z" fill="#29A71A" transform="matrix(1 0 0 1.0099 693 428)"/><path d="M25.2145 74.7065 30.1816 61.7441C22.7907 50.2384 26.1263 34.9198 37.632 27.5288 49.1375 20.1379 64.4563 23.4734 71.8473 34.9791 79.2383 46.4849 75.9025 61.8035 64.397 69.1945 56.5263 74.2504 46.4783 74.439 38.4234 69.6821ZM39.4531 65.9538 39.9009 66.2339C49.6638 72.2606 62.4638 69.2319 68.4904 59.4691 74.5171 49.7062 71.4883 36.9062 61.7256 30.8796 51.9627 24.8529 39.1628 27.8815 33.1361 37.6444 28.8485 44.5897 29.0255 53.4024 33.5884 60.17L33.8981 60.6316 30.5762 69.3349Z" fill="#FEFEFE" transform="matrix(1 0 0 1.0099 693 428)"/><path d="M62.5608 52.9343C60.2745 51.7507 57.8442 50.6539 57.8264 50.644 56.99 50.2495 56.4022 50.6894 56.2207 50.9517L54.3191 53.3189C53.8062 53.7687 53.0921 53.3189 53.0132 53.2716 49.8255 51.9546 47.1619 49.6218 45.4362 46.6356 45.0417 46.1306 45.3869 45.8011 45.4618 45.738L45.4618 45.738C46.2509 45.0555 46.9788 43.8936 47.0064 43.8482 47.4779 43.1104 47.0557 42.1931 47.0419 42.1636L45.0002 37.439C44.5169 36.5178 43.4221 36.6756 43.4063 36.6815L42.5956 36.6815C42.0608 36.5971 41.5169 36.7612 41.118 37.1274L41.118 37.1274C40.1747 37.8647 39.4403 38.8359 38.9876 39.9443 38.1565 42.5015 38.5642 45.2997 40.0903 47.5134 43.5977 53.1927 46.9729 55.4652 47.107 55.552 51.8414 59.012 56.5916 59.4973 56.773 59.5131 57.0378 59.549 57.3047 59.5667 57.572 59.5663 59.2462 59.5401 60.8415 58.8495 62.0065 57.6469 63.1072 56.6981 63.2789 54.5597 63.2848 54.4493 63.2907 53.2617 62.5707 52.9382 62.5608 52.9343Z" fill="#FEFEFE" transform="matrix(1 0 0 1.0099 693 428)"/></g></svg>